<?xml version="1.0" encoding="UTF-8" standalone="no"?>
<!-- Generator: Adobe Illustrator 26.1.0, SVG Export Plug-In . SVG Version: 6.00 Build 0)  -->

<svg
   version="1.1"
   id="svg7427"
   inkscape:export-filename="Logo letras cicas.png"
   x="0px"
   y="0px"
   viewBox="0 0 802.91949 112.4391"
   xml:space="preserve"
   sodipodi:docname="Logo_letras_chicas_con_sombra en blanco y negro-trayectos-v2.svg"
   inkscape:version="1.2 (dc2aedaf03, 2022-05-15)"
   width="802.91949"
   height="112.4391"
   inkscape:export-xdpi="96"
   inkscape:export-ydpi="96"
   xmlns:inkscape="http://www.inkscape.org/namespaces/inkscape"
   xmlns:sodipodi="http://sodipodi.sourceforge.net/DTD/sodipodi-0.dtd"
   xmlns="http://www.w3.org/2000/svg"
   xmlns:svg="http://www.w3.org/2000/svg"><defs
   id="defs161"><filter
     inkscape:collect="always"
     style="color-interpolation-filters:sRGB"
     id="filter3852"
     x="-0.018559918"
     y="-0.13139509"
     width="1.0371198"
     height="1.2627902"><feGaussianBlur
       inkscape:collect="always"
       stdDeviation="5.0624876"
       id="feGaussianBlur3854" /></filter><filter
     inkscape:collect="always"
     style="color-interpolation-filters:sRGB"
     id="filter4803"
     x="-0.086432119"
     y="-0.078251531"
     width="1.1728642"
     height="1.1565031"><feGaussianBlur
       inkscape:collect="always"
       stdDeviation="1.9260205"
       id="feGaussianBlur4805" /></filter></defs><sodipodi:namedview
   id="namedview159"
   pagecolor="#ffffff"
   bordercolor="#000000"
   borderopacity="0.25"
   inkscape:showpageshadow="2"
   inkscape:pageopacity="0"
   inkscape:pagecheckerboard="0"
   inkscape:deskcolor="#d1d1d1"
   showgrid="false"
   inkscape:zoom="2"
   inkscape:cx="457.25"
   inkscape:cy="33.5"
   inkscape:window-width="1920"
   inkscape:window-height="1009"
   inkscape:window-x="1358"
   inkscape:window-y="-8"
   inkscape:window-maximized="1"
   inkscape:current-layer="svg7427" />
<style
   type="text/css"
   id="style148">
	.st0{fill:#DD1B24;}
	.st1{enable-background:new    ;}
	.st2{fill:#FFFFFF;}
	.st3{fill:#FFCCCC;fill-opacity:0.7529;}
</style>
<path
   id="path7389"
   inkscape:label="fondo"
   sodipodi:nodetypes="ccccc"
   class="st0"
   d="m 21.211314,4.8624898 h 69 c 8.3,0 14.999996,6.7000002 14.999996,15.0000002 v 69 c 0,8.3 -6.699996,15 -14.999996,15 h -69 c -8.3,0 -15,-6.7 -15,-15 v -69 c 0,-8.3 6.7,-15.0000002 15,-15.0000002 z"
   style="fill:none" />



<g
   id="icono-3"
   transform="matrix(2.0076165,0,0,1.6458539,-37.999263,-26.453502)"
   inkscape:label="iconoSombra"
   style="display:inline;opacity:0.322674;fill:#454545;fill-opacity:1;filter:url(#filter4803)"><rect
     style="fill:#454545;fill-opacity:1;stroke-width:0.533207"
     id="rect1032-4"
     width="39.781406"
     height="52.532631"
     x="25.396687"
     y="23.339689" /><path
     id="path7403-8"
     inkscape:label="lapiz"
     sodipodi:nodetypes="aascsssca"
     class="st3"
     d="m 73.630688,79.688428 c -0.2,0.104683 -0.5,0.104683 -0.7,0 -2.1,-1.360873 -3.1,-4.606033 -3.1,-7.013732 0,-13.085322 0.1,-26.170644 0.2,-39.151283 0,-0.314048 0.2,-0.523413 0.5,-0.523413 h 5.6 c 0.5,0 0.9,0.41873 0.9,0.942143 0,12.457226 0,26.275326 -0.1,38.62787 -0.2,2.82643 -1.2,5.757542 -3.3,7.118415 z"
     style="fill:#454545;fill-opacity:1;stroke-width:1.02315" /><path
     id="path7393-1"
     inkscape:label="borrador"
     class="st3"
     d="m 69.730688,29.3 c -0.5,-2.2 -0.4,-4.5 0.4,-6.7 0.3,-0.8 1,-1.4 1.8,-1.6 2.9,-0.7 4.5,0.3 4.8,3 0.2,2.4 0.3,4.1 0.1,5.3 0,0.3 -0.3,0.6 -0.6,0.6 h -5.9 c -0.3,0 -0.5,-0.3 -0.6,-0.6 z"
     style="fill:#454545;fill-opacity:1" /><path
     id="path1172-4"
     inkscape:label="libreta"
     sodipodi:nodetypes="csscsscsscssccscccccccccscssscsssccccssccccsssssccsssccscccsccssscccssccsccssccssccszzcczzccsccscccccsccccssccccsscccssccs"
     class="st3"
     d="m 38.2,79.7 c -11.6,-0.1 -11.1,0 -12.3,-0.6 -1.1,-0.5 -1.9,-1.6 -2.2,-3 -0.2,-0.8 -0.2,-48.2 0,-50 0.2,-1.8 -0.2,-4.7 0.2,-5 0.5,-0.5 42.9,-0.5 43.2,-0.2 0.3,0.4 0.1,1.5 0.1,1.5 v 13.3 c 0,7.3 0,20 -0.1,28.1 L 67,78.6 66.8,78.8 c -0.2,0.3 -1.3,0.6 -3,0.8 -1.1,0.2 -4.2,0.2 -25.6,0.1 z m 2.4,-4.9 c 0.5,-0.3 0.8,-0.9 0.9,-1.5 0.1,-3.5 0.1,-6.1 0.1,-9.8 L 41.3,63.2 41,62.9 h -5.6 -5.6 l -0.2,0.2 -0.2,0.2 c 0,3.5 -0.1,7 0,10.5 0.1,0.4 0.1,0.6 0.4,0.9 L 30,75 h 5.1 c 5,0 5,0 5.5,-0.2 z m 20.6,-0.9 c 0.8,-0.1 0.8,-0.1 1,-0.3 0.1,-0.2 0.2,-0.5 0.2,-0.7 0.1,-0.4 0,-0.5 -0.2,-0.8 l -0.3,-0.3 c -5.5,0.3 -11.2,-0.4 -16.6,0.3 -0.5,1 -0.4,1.6 0.4,2 5.4,0.1 10.1,0 15.5,-0.2 z M 61,70.1 c 0.8,-0.4 1.2,-1.5 0.7,-2 l -0.2,-0.2 c -5.1,0 -10.2,-0.1 -15.2,0.1 -1.1,0.4 -0.8,1.4 -0.2,2.1 5,0.7 7.1,0.1 14,0.2 0.3,-0.1 0.7,-0.1 0.9,-0.2 z m 1.2,-4.3 c 0.3,-0.3 0.3,-0.4 0.3,-0.8 0,-0.4 0,-0.6 -0.3,-0.8 l -0.3,-0.3 h -16 l -0.3,0.3 c -0.3,0.3 -0.3,0.4 -0.3,0.8 0,0.4 0,0.6 0.3,0.8 l 0.3,0.3 h 16 z m -20.9,-9.7 0.3,-0.3 c 0,-3.3 0.1,-6.7 0,-10 0,-0.3 -0.2,-0.5 -0.3,-0.7 L 41,44.8 H 29.9 l -0.3,0.3 c -0.1,0.1 -0.3,0.4 -0.3,0.7 -0.1,0.7 -0.1,9.4 0,9.8 0.1,0.2 0.2,0.5 0.4,0.6 4,0.4 5.8,0.2 11.2,0.2 z m 20.7,-1 c 0.3,-0.4 0.3,-1 0,-1.4 l -0.3,-0.3 c -5.2,0.2 -10.5,-0.3 -15.7,0.1 -0.6,0.3 -0.8,1 -0.3,1.5 l 0.3,0.3 h 15.8 z m 0,-3.9 c 0.3,-0.4 0.4,-0.9 0.1,-1.2 -4.3,-0.4 -7.7,-0.3 -13.6,-0.4 -2.2,0 -2.4,0 -2.6,0.2 -0.1,0.1 -0.2,0.3 -0.2,0.6 0,0.7 0.2,0.9 1.5,1 4.9,-0.3 9.9,0.5 14.8,-0.2 z m 0,-3.3 c 0.3,0 0.4,-2 0,-1.9 -0.4,0 -16.2,-0.1 -16.2,-0.1 -0.2,0.6 -0.2,1.3 -0.1,1.9 0.4,0 13.6,0.1 16.3,0.1 2.7,0 -0.3,0 0,0 z M 41.2,37.7 c 0.2,-1.6 0.4,-10 0.2,-10.7 0,-1.7 -1.4,-1.3 -3,-1.4 -0.7,0 -8.1,-0.2 -8.3,0.6 -0.5,0.8 -0.4,11 -0.2,11.6 0.3,0.1 10.8,0.1 11.3,-0.1 z M 62,36.9 c 0.6,-0.4 0.7,-1.2 0.2,-1.7 L 61.8,34.8 H 45.9 l -0.3,0.3 c -0.6,0.5 -0.5,1.4 0.1,1.8 5.7,0 9,1.1 16.3,0 z m 0.2,-4.2 c 0.2,-0.3 0.3,-0.4 0.3,-0.8 0,-0.5 -0.2,-1 -0.5,-1.2 -0.3,-0.2 -15.2,-0.1 -15.8,0 -0.9,0.2 -1.1,1.5 -0.3,2.2 C 51.7,33.1 55,33 62,33 Z m -5.4,-3.6 4.6,-0.1 0.3,-0.3 c 0.5,-0.5 0.5,-1.1 0,-1.5 l -0.3,-0.3 c -5,0.4 -11.8,-0.9 -16,0.6 -0.2,0.5 -0.1,1.2 0.3,1.4 0.3,0.2 0.3,0.2 3.4,0.2 1.8,0.1 5.2,0 7.7,0 z"
     style="fill:#454545;fill-opacity:1" /></g><g
   id="icono"
   transform="matrix(1.9330101,0,0,1.5984147,-34.749009,-25.196168)"><rect
     style="fill:#ffffff;fill-opacity:1;stroke-width:0.533207"
     id="rect1032"
     width="39.781406"
     height="52.532631"
     x="25.396687"
     y="23.339689" /><path
     id="path7403"
     inkscape:label="lapiz"
     sodipodi:nodetypes="aascsssca"
     class="st3"
     d="m 73.630688,79.688428 c -0.2,0.104683 -0.5,0.104683 -0.7,0 -2.1,-1.360873 -3.1,-4.606033 -3.1,-7.013732 0,-13.085322 0.1,-26.170644 0.2,-39.151283 0,-0.314048 0.2,-0.523413 0.5,-0.523413 h 5.6 c 0.5,0 0.9,0.41873 0.9,0.942143 0,12.457226 0,26.275326 -0.1,38.62787 -0.2,2.82643 -1.2,5.757542 -3.3,7.118415 z"
     style="fill:#dd1b24;fill-opacity:1;stroke-width:1.02315" /><path
     id="path7393"
     inkscape:label="borrador"
     class="st3"
     d="m 69.730688,29.3 c -0.5,-2.2 -0.4,-4.5 0.4,-6.7 0.3,-0.8 1,-1.4 1.8,-1.6 2.9,-0.7 4.5,0.3 4.8,3 0.2,2.4 0.3,4.1 0.1,5.3 0,0.3 -0.3,0.6 -0.6,0.6 h -5.9 c -0.3,0 -0.5,-0.3 -0.6,-0.6 z"
     style="fill:#dd1b24;fill-opacity:1" /><path
     id="path1172"
     inkscape:label="libreta"
     sodipodi:nodetypes="csscsscsscssccscccccccccscssscsssccccssccccsssssccsssccscccsccssscccssccsccssccssccszzcczzccsccscccccsccccssccccsscccssccs"
     class="st3"
     d="m 38.2,79.7 c -11.6,-0.1 -11.1,0 -12.3,-0.6 -1.1,-0.5 -1.9,-1.6 -2.2,-3 -0.2,-0.8 -0.2,-48.2 0,-50 0.2,-1.8 -0.2,-4.7 0.2,-5 0.5,-0.5 42.9,-0.5 43.2,-0.2 0.3,0.4 0.1,1.5 0.1,1.5 v 13.3 c 0,7.3 0,20 -0.1,28.1 L 67,78.6 66.8,78.8 c -0.2,0.3 -1.3,0.6 -3,0.8 -1.1,0.2 -4.2,0.2 -25.6,0.1 z m 2.4,-4.9 c 0.5,-0.3 0.8,-0.9 0.9,-1.5 0.1,-3.5 0.1,-6.1 0.1,-9.8 L 41.3,63.2 41,62.9 h -5.6 -5.6 l -0.2,0.2 -0.2,0.2 c 0,3.5 -0.1,7 0,10.5 0.1,0.4 0.1,0.6 0.4,0.9 L 30,75 h 5.1 c 5,0 5,0 5.5,-0.2 z m 20.6,-0.9 c 0.8,-0.1 0.8,-0.1 1,-0.3 0.1,-0.2 0.2,-0.5 0.2,-0.7 0.1,-0.4 0,-0.5 -0.2,-0.8 l -0.3,-0.3 c -5.5,0.3 -11.2,-0.4 -16.6,0.3 -0.5,1 -0.4,1.6 0.4,2 5.4,0.1 10.1,0 15.5,-0.2 z M 61,70.1 c 0.8,-0.4 1.2,-1.5 0.7,-2 l -0.2,-0.2 c -5.1,0 -10.2,-0.1 -15.2,0.1 -1.1,0.4 -0.8,1.4 -0.2,2.1 5,0.7 7.1,0.1 14,0.2 0.3,-0.1 0.7,-0.1 0.9,-0.2 z m 1.2,-4.3 c 0.3,-0.3 0.3,-0.4 0.3,-0.8 0,-0.4 0,-0.6 -0.3,-0.8 l -0.3,-0.3 h -16 l -0.3,0.3 c -0.3,0.3 -0.3,0.4 -0.3,0.8 0,0.4 0,0.6 0.3,0.8 l 0.3,0.3 h 16 z m -20.9,-9.7 0.3,-0.3 c 0,-3.3 0.1,-6.7 0,-10 0,-0.3 -0.2,-0.5 -0.3,-0.7 L 41,44.8 H 29.9 l -0.3,0.3 c -0.1,0.1 -0.3,0.4 -0.3,0.7 -0.1,0.7 -0.1,9.4 0,9.8 0.1,0.2 0.2,0.5 0.4,0.6 4,0.4 5.8,0.2 11.2,0.2 z m 20.7,-1 c 0.3,-0.4 0.3,-1 0,-1.4 l -0.3,-0.3 c -5.2,0.2 -10.5,-0.3 -15.7,0.1 -0.6,0.3 -0.8,1 -0.3,1.5 l 0.3,0.3 h 15.8 z m 0,-3.9 c 0.3,-0.4 0.4,-0.9 0.1,-1.2 -4.3,-0.4 -7.7,-0.3 -13.6,-0.4 -2.2,0 -2.4,0 -2.6,0.2 -0.1,0.1 -0.2,0.3 -0.2,0.6 0,0.7 0.2,0.9 1.5,1 4.9,-0.3 9.9,0.5 14.8,-0.2 z m 0,-3.3 c 0.3,0 0.4,-2 0,-1.9 -0.4,0 -16.2,-0.1 -16.2,-0.1 -0.2,0.6 -0.2,1.3 -0.1,1.9 0.4,0 13.6,0.1 16.3,0.1 2.7,0 -0.3,0 0,0 z M 41.2,37.7 c 0.2,-1.6 0.4,-10 0.2,-10.7 0,-1.7 -1.4,-1.3 -3,-1.4 -0.7,0 -8.1,-0.2 -8.3,0.6 -0.5,0.8 -0.4,11 -0.2,11.6 0.3,0.1 10.8,0.1 11.3,-0.1 z M 62,36.9 c 0.6,-0.4 0.7,-1.2 0.2,-1.7 L 61.8,34.8 H 45.9 l -0.3,0.3 c -0.6,0.5 -0.5,1.4 0.1,1.8 5.7,0 9,1.1 16.3,0 z m 0.2,-4.2 c 0.2,-0.3 0.3,-0.4 0.3,-0.8 0,-0.5 -0.2,-1 -0.5,-1.2 -0.3,-0.2 -15.2,-0.1 -15.8,0 -0.9,0.2 -1.1,1.5 -0.3,2.2 C 51.7,33.1 55,33 62,33 Z m -5.4,-3.6 4.6,-0.1 0.3,-0.3 c 0.5,-0.5 0.5,-1.1 0,-1.5 l -0.3,-0.3 c -5,0.4 -11.8,-0.9 -16,0.6 -0.2,0.5 -0.1,1.2 0.3,1.4 0.3,0.2 0.3,0.2 3.4,0.2 1.8,0.1 5.2,0 7.7,0 z"
     style="fill:#dd1b24;fill-opacity:1" /></g>
<text
   xml:space="preserve"
   style="font-weight:bold;font-size:130.238px;font-family:'Comic Sans MS';-inkscape-font-specification:'Comic Sans MS Bold';letter-spacing:-4.84105px;display:inline;opacity:0.2;mix-blend-mode:normal;fill:#000000;fill-opacity:1;stroke:none;stroke-width:2.442;stroke-dasharray:none;stroke-opacity:1;filter:url(#filter3852)"
   x="115.5322"
   y="112.36668"
   id="text510-8"
   transform="matrix(1.0128256,0,0,0.9033631,5.4048276,-2.7439737)"
   inkscape:label="textoSombra"><tspan
     sodipodi:role="line"
     id="tspan508-6"
     x="115.5322"
     y="112.36668"
     style="font-style:normal;font-variant:normal;font-weight:bold;font-stretch:normal;font-family:'Glaschu Inline';-inkscape-font-specification:'Glaschu Inline Bold';fill:#000000;fill-opacity:1;stroke:none;stroke-width:2.442;stroke-dasharray:none;stroke-opacity:1"><tspan
       style="fill:#000000;fill-opacity:1;stroke:none;stroke-width:2.442;stroke-dasharray:none;stroke-opacity:1"
       id="tspan1847-7"><tspan
   style="font-size:30.9826px;fill:#000000;fill-opacity:1;stroke:none;stroke-width:2.442;stroke-dasharray:none;stroke-opacity:1"
   id="tspan11972-6"> </tspan>BRAIN</tspan><tspan
       style="fill:#000000;fill-opacity:1;stroke:none;stroke-width:2.442;stroke-dasharray:none;stroke-opacity:1"
       id="tspan3407-1">BOOST</tspan></tspan></text><g
   aria-label=" BRAINBOOST"
   transform="matrix(1.0274367,0,0,0.97329598,6.211314,4.8624898)"
   id="text510"
   style="font-weight:bold;font-size:130.238px;font-family:'Comic Sans MS';-inkscape-font-specification:'Comic Sans MS Bold';letter-spacing:-4.84105px;opacity:1;fill:#a6141b;stroke-width:2.442"
   inkscape:label="texto"><path
     d="m 123.78083,97.192955 h 30.21522 c 3.7769,0 7.42357,-0.781428 10.93999,-2.344284 3.25595,-1.562856 6.25143,-3.646664 8.72595,-6.381662 5.07928,-5.469997 7.94452,-12.763325 7.94452,-20.447367 0,-7.684043 -2.86524,-14.847133 -7.94452,-20.317129 -1.30238,-1.432619 -2.86524,-2.734999 -4.42809,-3.776903 2.34428,-3.90714 3.64666,-8.46547 3.64666,-13.284276 0,-6.381663 -2.34428,-12.502849 -6.64214,-17.191417 -4.42809,-4.8188065 -10.41904,-7.4235666 -16.8007,-7.4235666 h -25.65689 z m 6.5119,-6.5119 V 12.538251 h 19.14499 c 9.37714,0 16.93094,8.204994 16.93094,18.103083 0,6.5119 -3.12571,12.242372 -7.81428,15.498322 3.90714,0.911666 7.5538,2.995475 10.41904,5.990949 3.90714,4.297854 6.12119,9.898088 6.12119,15.889037 0,12.502848 -9.50738,22.661413 -21.09856,22.661413 z m 3.38619,-45.062351 h 15.88904 c 7.42356,0 13.41451,-6.772376 13.41451,-14.97737 0,-8.074757 -6.12118,-14.716895 -13.54475,-14.716895 h -15.7588 z m 6.5119,-6.5119 V 22.436339 h 9.2469 c 3.90714,0 7.03285,3.646664 7.03285,8.204995 0,2.344284 -0.91166,4.688568 -2.34428,6.251424 -0.91167,1.041904 -2.34429,2.214046 -4.55833,2.214046 z m -6.5119,48.188063 h 20.31713 c 9.76785,0 17.71237,-8.595709 17.71237,-19.275225 0,-5.079283 -1.82333,-9.898089 -5.20952,-13.544753 -3.38619,-3.516426 -7.81428,-5.469996 -12.50285,-5.469996 h -20.31713 z m 6.5119,-6.511901 V 55.516793 h 13.80523 c 2.86524,0 5.60023,1.172142 7.68404,3.386188 2.34429,2.474522 3.51643,5.730472 3.51643,9.116661 0,7.032852 -5.07928,12.763324 -11.20047,12.763324 z"
     style="fill:#0d967c"
     id="path7152" /><path
     d="m 190.44042,97.192955 h 16.40999 V 63.982263 h 0.13024 l 20.96832,33.210692 h 19.5357 L 224.82326,61.377503 c 3.25595,-1.432618 6.25142,-3.25595 8.85618,-5.600234 6.12119,-5.339758 9.37714,-13.023801 9.37714,-20.838081 0,-7.814281 -3.38619,-15.368085 -9.37714,-20.707843 -5.86071,-5.2095204 -13.67499,-8.2049946 -21.61951,-8.2049946 h -21.61951 z m 6.51191,-6.5119 V 12.538251 h 15.1076 c 6.25143,0 12.63309,2.344284 17.32166,6.5119 4.55833,4.167616 7.16309,9.898089 7.16309,15.889037 0,5.339758 -1.82333,9.76785 -4.81881,13.414515 -4.42809,5.339758 -10.67951,8.204994 -17.19141,8.986422 l 21.09855,33.34093 h -4.03738 L 210.62732,57.470363 h -10.28881 v 33.210692 z m 3.38618,-36.59688 h 11.72142 c 4.29786,0 12.37261,-1.562856 17.32166,-8.204995 2.21404,-2.865236 3.7769,-6.381662 3.7769,-10.939992 0,-4.818806 -2.21405,-10.028327 -6.5119,-13.674991 -3.90714,-3.516426 -9.11666,-5.339758 -14.58666,-5.339758 h -11.72142 z m 6.5119,-6.5119 V 22.436339 h 5.20952 c 8.07476,0 14.58666,5.730473 14.58666,12.502849 0,6.902614 -6.5119,12.633087 -14.58666,12.633087 z"
     style="fill:#0d967c"
     id="path7154" /><path
     d="m 247.85328,97.192955 h 17.19142 l 4.68857,-14.586657 h 28.26164 l 4.68857,14.586657 H 319.8749 L 290.31087,6.0263504 h -12.89356 z m 8.98642,-6.5119 25.26618,-78.142804 h 3.51642 l 25.26618,78.142804 h -3.51643 L 302.68348,76.094398 H 265.0447 l -4.68857,14.586657 z m 9.37714,-17.972845 h 35.42474 L 283.92921,18.138485 Z m 8.98642,-6.511901 8.72595,-26.959267 8.72595,26.959267 z"
     style="fill:#0d967c"
     id="path7156" /><path
     d="M 344.46756,6.0263504 H 328.05757 V 97.192955 h 16.40999 z m -6.5119,6.5119006 v 78.142804 h -3.38619 V 12.538251 Z"
     style="fill:#0d967c"
     id="path7158" /><path
     d="M 355.25511,97.192955 H 371.6651 V 44.055848 l 25.39641,53.137107 H 413.4715 V 6.0263504 H 397.06151 V 59.163457 L 371.6651,6.0263504 h -16.40999 z m 6.5119,-6.5119 V 12.538251 h 5.73048 l 35.68521,74.756616 h 0.39071 V 12.538251 h 3.38619 v 78.142804 h -5.73047 L 365.41368,15.924439 h -0.26048 v 74.756616 z"
     style="fill:#0d967c"
     id="path7160" /><path
     d="m 424.25894,97.192955 h 30.21522 c 3.7769,0 7.42357,-0.781428 10.93999,-2.344284 3.25595,-1.562856 6.25143,-3.646664 8.72595,-6.381662 5.07928,-5.469997 7.94452,-12.763325 7.94452,-20.447367 0,-7.684043 -2.86524,-14.847133 -7.94452,-20.317129 -1.30238,-1.432619 -2.86524,-2.734999 -4.42809,-3.776903 2.34428,-3.90714 3.64666,-8.46547 3.64666,-13.284276 0,-6.381663 -2.34428,-12.502849 -6.64214,-17.191417 -4.42809,-4.8188065 -10.41904,-7.4235666 -16.8007,-7.4235666 h -25.65689 z m 6.5119,-6.5119 V 12.538251 h 19.14499 c 9.37714,0 16.93094,8.204994 16.93094,18.103083 0,6.5119 -3.12571,12.242372 -7.81428,15.498322 3.90714,0.911666 7.55381,2.995475 10.41904,5.990949 3.90714,4.297854 6.12119,9.898088 6.12119,15.889037 0,12.502848 -9.50738,22.661413 -21.09856,22.661413 z m 3.38619,-45.062351 h 15.88904 c 7.42357,0 13.41451,-6.772376 13.41451,-14.97737 0,-8.074757 -6.12118,-14.716895 -13.54475,-14.716895 h -15.7588 z m 6.5119,-6.5119 V 22.436339 h 9.2469 c 3.90714,0 7.03285,3.646664 7.03285,8.204995 0,2.344284 -0.91166,4.688568 -2.34428,6.251424 -0.91167,1.041904 -2.34428,2.214046 -4.55833,2.214046 z m -6.5119,48.188063 h 20.31713 c 9.76785,0 17.71237,-8.595709 17.71237,-19.275225 0,-5.079283 -1.82333,-9.898089 -5.20952,-13.544753 -3.38619,-3.516426 -7.81428,-5.469996 -12.50285,-5.469996 h -20.31713 z m 6.5119,-6.511901 V 55.516793 h 13.80523 c 2.86524,0 5.60024,1.172142 7.68404,3.386188 2.34429,2.474522 3.51643,5.730472 3.51643,9.116661 0,7.032852 -5.07928,12.763324 -11.20047,12.763324 z"
     style="fill:#188e23"
     id="path7162" /><path
     d="m 524.52005,97.844145 c 10.15857,0 19.92642,-6.121186 25.91737,-14.586657 6.12118,-8.46547 9.63761,-19.926415 9.63761,-31.647835 0,-11.721421 -3.51643,-23.182365 -9.63761,-31.647836 -5.99095,-8.46547 -15.7588,-14.5866566 -25.91737,-14.5866566 -10.54927,0 -19.79617,5.9909486 -26.0476,14.5866566 -6.12118,8.465471 -9.50737,19.926415 -9.50737,31.647836 0,11.72142 3.38619,23.182365 9.50737,31.647835 6.25143,8.595709 15.49833,14.586657 26.0476,14.586657 z m 0,-6.5119 c -8.33523,0 -15.62856,-4.818807 -20.83808,-11.851659 -5.20952,-7.293328 -8.20499,-17.451893 -8.20499,-27.870933 0,-10.419041 2.99547,-20.577605 8.20499,-27.870934 4.94905,-6.642138 12.11214,-11.851658 20.83808,-11.851658 7.42357,0 15.62857,4.818806 20.57761,11.851658 5.33976,7.423567 8.46547,17.582131 8.46547,27.870934 0,10.288802 -3.12571,20.447367 -8.46547,27.870933 -4.68857,6.642138 -12.76333,11.851659 -20.57761,11.851659 z m 0,-3.386188 c 7.42357,0 14.58666,-4.688569 19.66594,-12.893563 3.90714,-6.642138 5.99095,-14.977371 5.99095,-23.442841 0,-8.465471 -2.21404,-16.930941 -6.12118,-23.573079 -4.4281,-7.293329 -11.46095,-12.763325 -19.53571,-12.763325 -7.03285,0 -13.41451,4.297854 -17.71236,10.028326 -5.20952,7.163091 -7.94452,16.930941 -7.94452,26.308078 0,9.11666 2.34428,17.842607 6.77237,24.614983 4.55833,6.902614 10.80976,11.721421 18.88451,11.721421 z m 0,-6.511901 c -5.07928,0 -9.89808,-3.386188 -13.41451,-8.725946 -3.51643,-5.469996 -5.73047,-12.893563 -5.73047,-21.098557 0,-8.856185 2.60476,-16.930941 6.64214,-22.400937 3.38618,-4.558331 7.81428,-7.423567 12.50284,-7.423567 5.33976,0 10.28881,3.646664 13.93547,9.507375 3.12571,5.339758 5.20952,12.502848 5.20952,20.317129 0,7.684042 -1.95357,14.716894 -5.07928,20.056653 -3.64666,5.990948 -8.72595,9.76785 -14.06571,9.76785 z"
     style="fill:#188e23"
     id="path7164" /><path
     d="m 603.81275,97.844145 c 10.15856,0 19.92641,-6.121186 25.91736,-14.586657 6.12119,-8.46547 9.63761,-19.926415 9.63761,-31.647835 0,-11.721421 -3.51642,-23.182365 -9.63761,-31.647836 -5.99095,-8.46547 -15.7588,-14.5866566 -25.91736,-14.5866566 -10.54928,0 -19.79618,5.9909486 -26.0476,14.5866566 -6.12119,8.465471 -9.50738,19.926415 -9.50738,31.647836 0,11.72142 3.38619,23.182365 9.50738,31.647835 6.25142,8.595709 15.49832,14.586657 26.0476,14.586657 z m 0,-6.5119 c -8.33523,0 -15.62856,-4.818807 -20.83808,-11.851659 -5.20952,-7.293328 -8.205,-17.451893 -8.205,-27.870933 0,-10.419041 2.99548,-20.577605 8.205,-27.870934 4.94904,-6.642138 12.11213,-11.851658 20.83808,-11.851658 7.42357,0 15.62856,4.818806 20.5776,11.851658 5.33976,7.423567 8.46547,17.582131 8.46547,27.870934 0,10.288802 -3.12571,20.447367 -8.46547,27.870933 -4.68856,6.642138 -12.76332,11.851659 -20.5776,11.851659 z m 0,-3.386188 c 7.42357,0 14.58666,-4.688569 19.66594,-12.893563 3.90714,-6.642138 5.99095,-14.977371 5.99095,-23.442841 0,-8.465471 -2.21405,-16.930941 -6.12119,-23.573079 -4.42809,-7.293329 -11.46094,-12.763325 -19.5357,-12.763325 -7.03285,0 -13.41452,4.297854 -17.71237,10.028326 -5.20952,7.163091 -7.94452,16.930941 -7.94452,26.308078 0,9.11666 2.34429,17.842607 6.77238,24.614983 4.55833,6.902614 10.80975,11.721421 18.88451,11.721421 z m 0,-6.511901 c -5.07928,0 -9.89809,-3.386188 -13.41452,-8.725946 -3.51642,-5.469996 -5.73047,-12.893563 -5.73047,-21.098557 0,-8.856185 2.60476,-16.930941 6.64214,-22.400937 3.38619,-4.558331 7.81428,-7.423567 12.50285,-7.423567 5.33976,0 10.2888,3.646664 13.93547,9.507375 3.12571,5.339758 5.20952,12.502848 5.20952,20.317129 0,7.684042 -1.95357,14.716894 -5.07929,20.056653 -3.64666,5.990948 -8.72594,9.76785 -14.0657,9.76785 z"
     style="fill:#188e23"
     id="path7166" /><path
     d="m 672.03531,97.844145 c 6.38166,0 13.15404,-2.344284 18.4938,-6.5119 5.86071,-4.688569 9.2469,-11.460945 9.2469,-18.624035 0.13023,-4.688568 -1.17215,-9.116661 -3.51643,-12.893563 -3.12571,-5.079282 -8.205,-9.637612 -14.19594,-12.763325 l -9.37714,-5.20952 c -7.16309,-4.297854 -9.50737,-7.423566 -9.37714,-11.200468 0,-4.558331 5.33976,-8.856185 11.20047,-8.856185 4.16762,0 6.64214,1.95357 7.94452,3.776902 1.17214,1.432618 1.56286,2.865237 1.56286,2.865237 l 15.7588,-4.688569 C 698.7341,20.222293 695.9991,15.533725 693.39434,13.189441 688.4453,8.1101585 681.9334,5.5053984 674.64007,5.3751604 c -6.38166,0 -13.15404,2.3442841 -18.4938,6.5119006 -5.86071,4.688568 -9.2469,11.460944 -9.2469,18.624035 -0.13023,4.688568 1.17215,9.11666 3.51643,12.893562 2.735,4.428093 7.5538,8.725947 13.93547,12.633087 l 9.76785,5.339758 c 7.03285,4.037378 9.37713,7.293329 9.2469,11.200469 0,4.55833 -5.33976,8.856184 -11.20047,8.856184 -3.38619,0 -5.73047,-1.041904 -7.55381,-3.25595 -1.0419,-1.172142 -1.69309,-2.344284 -2.0838,-3.516426 l -15.62857,4.818806 c 0.91167,2.865236 2.86524,6.5119 4.94905,8.986423 4.68857,5.86071 11.9819,9.246898 20.18689,9.377136 z m 0,-6.5119 c -3.12571,0 -5.99095,-0.65119 -8.72595,-1.95357 -3.25595,-1.562856 -5.99095,-4.297855 -7.16309,-5.990949 l 3.51643,-1.041904 c 1.56286,1.95357 3.38619,3.386188 5.60023,4.297854 1.95357,0.911667 4.29786,1.302381 6.90262,1.302381 3.64666,0 8.59571,-1.432619 11.85166,-4.167617 3.64666,-2.865236 5.86071,-6.902614 5.86071,-11.07023 0.13023,-3.516426 -1.04191,-6.902615 -3.38619,-9.767851 -1.82333,-2.344284 -5.07928,-4.949044 -9.2469,-7.293328 l -9.63761,-5.20952 c -5.47,-3.386189 -9.50738,-7.032853 -11.72142,-10.419041 -1.6931,-2.865236 -2.60476,-6.121186 -2.47453,-9.377136 v -0.130238 c 0,-5.079283 2.47453,-10.028327 6.77238,-13.544753 3.7769,-2.865236 8.98642,-5.079282 14.32618,-5.079282 2.86524,0 5.47,0.520952 7.94452,1.562856 3.38619,1.172142 6.77238,4.688568 8.07476,6.251424 l -3.51643,1.041904 c -1.30238,-1.432618 -2.735,-2.60476 -4.29785,-3.516426 -2.47453,-1.30238 -5.20952,-1.95357 -8.205,-1.95357 -4.03738,0 -8.85618,1.693094 -11.85166,4.167616 -3.64666,2.865236 -5.86071,6.902614 -5.86071,11.070231 -0.13024,3.516426 1.04191,6.772376 3.38619,9.637612 1.95357,2.474522 4.94905,4.688568 9.11666,7.293328 l 9.63761,5.339759 c 5.07929,2.60476 9.2469,6.381662 11.72142,10.41904 1.82334,2.865236 2.735,6.121187 2.60476,9.377137 v 0.130238 c 0,5.079282 -2.47452,10.028326 -6.77237,13.544752 -4.16762,3.125713 -9.37714,5.079283 -14.45642,5.079283 z"
     style="fill:#188e23"
     id="path7168" /><path
     d="m 727.88524,97.192955 h 16.40999 V 22.436339 H 763.0495 V 6.0263504 H 709.2612 V 22.436339 h 18.62404 z m 6.5119,-6.5119 V 15.924439 H 715.7731 v -3.386188 h 40.7645 v 3.386188 h -18.75427 v 74.756616 z"
     style="fill:#188e23"
     id="path7170" /></g><g
   id="g7873"
   inkscape:label="Relleno blanco letras"
   transform="translate(6.211314,4.8624898)"><path
     style="opacity:1;fill:#ffffff;fill-opacity:1;stroke:none;stroke-width:0.215844;stroke-dasharray:none;stroke-opacity:1"
     d="m 133.90835,50.204582 v -38.00699 h 10.10511 c 6.49253,0 10.45029,0.03369 11.07064,0.09424 6.16102,0.601355 11.44372,4.335614 14.12368,9.983819 2.22624,4.691945 2.26579,10.114918 0.10959,15.02575 -0.46015,1.048 -1.06522,2.090878 -1.90984,3.291709 -0.70286,0.999294 -2.6944,3.012603 -3.69021,3.730561 -0.40106,0.289156 -0.72921,0.550023 -0.72921,0.579705 0,0.02968 0.30826,0.126259 0.68501,0.214615 1.88806,0.442782 4.67612,1.671218 6.47445,2.852684 5.13337,3.372521 8.54104,8.792643 9.51775,15.138603 0.19744,1.282865 0.22173,4.763702 0.0416,5.966214 -0.47455,3.168455 -1.41389,5.884673 -2.90862,8.410632 -3.54067,5.983366 -9.52443,9.880769 -16.32928,10.635738 -0.49279,0.05467 -5.6977,0.08853 -13.6781,0.08898 l -12.8826,7.25e-4 z m 27.312,34.538735 c 3.2729,-0.689871 5.86472,-1.86295 8.13172,-3.680489 0.79357,-0.636229 2.20772,-2.043642 2.85273,-2.83914 3.09521,-3.817321 4.6231,-8.960742 4.12603,-13.889703 -0.78954,-7.82915 -6.14298,-14.13588 -13.64723,-16.077397 -2.2328,-0.577676 -1.71231,-0.555779 -14.08069,-0.592372 l -11.24742,-0.03328 V 66.288873 84.94681 l 11.60097,-0.03188 c 10.15452,-0.02791 11.68363,-0.04931 12.26389,-0.171613 z m -6.76171,-40.375941 c 1.37262,-0.09637 2.359,-0.289664 3.50066,-0.685991 4.48846,-1.558168 8.04771,-5.666849 9.12686,-10.535755 0.7411,-3.343675 0.35951,-6.71168 -1.09741,-9.686045 -2.16837,-4.426821 -6.26854,-7.346931 -11.09175,-7.899456 -0.48682,-0.05577 -4.01847,-0.091 -9.16671,-0.09144 l -8.3748,-7.25e-4 V 29.91209 c 0,9.561913 0.0299,14.454088 0.0885,14.473592 0.22783,0.07585 15.91393,0.05898 17.01466,-0.01831 z"
     id="path7796" /><path
     style="opacity:0.238372;fill:#ffffff;fill-opacity:1;stroke:none;stroke-width:0.215844;stroke-dasharray:none;stroke-opacity:1"
     d="M 202.40932,50.199216 V 12.18686 l 8.86093,0.03575 c 9.60542,0.03875 9.40287,0.02943 12.11134,0.557536 4.16567,0.81224 8.35264,2.702214 11.64303,5.255597 0.97354,0.75548 2.55814,2.31081 3.32731,3.265852 2.56438,3.184075 4.09966,6.765207 4.5429,10.596616 0.17197,1.48648 0.0689,4.294235 -0.21143,5.761149 -1.76739,9.247543 -10.18184,16.391915 -21.1822,17.98496 -0.55906,0.08096 -1.02911,0.159004 -1.04457,0.17343 -0.0154,0.01443 4.80076,7.259219 10.70268,16.099541 5.90193,8.840321 10.7595,16.123031 10.7946,16.183798 0.0503,0.08704 -0.36869,0.110485 -1.9743,0.110485 h -2.03813 L 227.18761,72.080698 216.43374,55.949824 h -5.28864 -5.28864 v 16.130874 16.130873 h -1.72357 -1.72357 z m 18.41441,2.270267 c 5.64973,-0.795853 10.35322,-3.0144 13.63058,-6.429283 2.54435,-2.651114 4.09941,-5.479036 4.77858,-8.68998 0.27978,-1.322734 0.38679,-3.914391 0.21491,-5.204949 -0.57786,-4.33875 -2.81493,-8.303982 -6.35757,-11.268844 -2.7547,-2.305422 -5.40164,-3.680398 -8.79993,-4.571191 -2.84647,-0.746147 -4.15673,-0.837275 -12.03852,-0.837275 h -6.39532 v 18.611914 18.611913 l 6.96058,-0.03747 c 5.87505,-0.03163 7.12373,-0.06045 8.00669,-0.184833 z"
     id="path7798" /><path
     style="opacity:0.238372;fill:#ffffff;fill-opacity:1;stroke:none;stroke-width:0.215844;stroke-dasharray:none;stroke-opacity:1"
     d="m 263.95187,88.099047 c 0.0238,-0.06189 2.32995,-6.813652 5.12489,-15.003922 2.79494,-8.190269 8.61412,-25.242778 12.93153,-37.894465 l 7.84982,-23.003068 h 1.78696 1.78695 l 0.1021,0.287262 c 0.1233,0.346918 2.47252,7.227019 14.7355,43.155611 5.17689,15.16744 9.78714,28.674555 10.245,30.015811 0.45786,1.341256 0.83248,2.465716 0.83248,2.498801 0,0.03308 -0.80129,0.04939 -1.78064,0.03623 l -1.78064,-0.02393 -2.38822,-7.049169 -2.38822,-7.049168 -19.36331,0.02229 -19.3633,0.02229 -2.38772,7.047782 -2.38772,7.047783 -1.79932,0.0012 c -1.42089,9.38e-4 -1.79024,-0.02248 -1.75614,-0.111336 z m 45.93768,-17.38154 c 0,-0.07574 -2.36408,-6.988868 -13.76753,-40.259585 -4.05337,-11.826128 -4.39787,-12.788467 -4.49312,-12.551146 -0.21905,0.545797 -18.06696,52.69826 -18.06696,52.792531 0,0.07376 4.73323,0.09976 18.1638,0.09976 11.03637,0 18.16381,-0.032 18.16381,-0.08156 z"
     id="path7800" /><path
     style="opacity:0.238372;fill:#ffffff;fill-opacity:1;stroke:none;stroke-width:0.215844;stroke-dasharray:none;stroke-opacity:1"
     d="m 343.74228,50.204582 v -38.00699 h 1.72358 1.72357 v 38.00699 38.006989 h -1.72357 -1.72358 z"
     id="path7802" /><path
     style="opacity:0.238372;fill:#ffffff;fill-opacity:1;stroke:none;stroke-width:0.6105;stroke-dasharray:none;stroke-opacity:1"
     d="m 371.75,50.25 v -38 l 2.9375,0.0075 2.9375,0.0075 18.26121,36.287888 c 10.04366,19.95834 18.39679,36.333083 18.5625,36.38832 0.23414,0.07805 0.30129,-8.011882 0.30129,-36.295402 V 12.25 H 416.375 418 V 50.257935 88.265868 L 415.10329,88.195435 412.20658,88.125 393.90797,51.950513 C 383.84373,32.054546 375.5285,15.695171 375.42968,15.596347 375.33086,15.497523 375.25,31.804167 375.25,51.833333 V 88.25 h -1.75 -1.75 z"
     id="path7804" /><path
     style="opacity:0.238372;fill:#ffffff;fill-opacity:1;stroke:none;stroke-width:0.6105;stroke-dasharray:none;stroke-opacity:1"
     d="M 442.75,50.263688 V 12.25 h 10.51054 c 11.92166,0 12.98581,0.114034 16.36446,1.753605 3.75451,1.821968 6.28704,4.352577 8.12755,8.121395 1.26198,2.584143 1.74022,4.680566 1.73942,7.625 -10e-4,3.219147 -0.51018,5.427496 -1.90266,8.25 -0.98737,2.00135 -1.53398,2.73745 -3.47438,4.67881 l -2.30268,2.303808 1.36916,0.398025 c 4.48747,1.304542 8.8002,4.417105 11.38212,8.21465 1.25907,1.851872 2.77238,5.076357 3.29916,7.029707 0.57433,2.129665 0.77778,6.679463 0.40267,9.004785 -1.40344,8.699858 -7.55626,15.530583 -16.14036,17.918663 -1.93534,0.538405 -2.44254,0.559185 -15.6875,0.64266 l -13.6875,0.08627 z m 29.56951,33.944705 c 3.9918,-1.354353 7.94151,-4.466285 10.01823,-7.893265 C 488.6785,65.8517 484.0314,52.580253 472.625,48.576943 L 470.625,47.875 458.3125,47.80148 446,47.727965 V 66.37712 85.026273 l 12.1875,-0.07907 12.1875,-0.07907 z m -7.25519,-40.075058 c 1.99074,-0.421855 4.5914,-1.73234 6.23366,-3.14117 2.58866,-2.220697 4.57436,-6.383753 4.86931,-10.208597 0.51302,-6.652729 -4.16291,-13.233424 -10.57838,-14.88752 C 464.32559,15.570326 462.45001,15.5 455.02641,15.5 H 446 V 30 44.5 l 8.6875,-0.0044 c 6.57167,-0.0033 9.09893,-0.09153 10.37682,-0.362325 z"
     id="path7806" /><path
     style="opacity:0.238372;fill:#ffffff;fill-opacity:1;stroke:none;stroke-width:0.6105;stroke-dasharray:none;stroke-opacity:1"
     d="M 534.25,88.376883 C 521.40078,85.50224 512.02178,73.56152 509.61232,57.00982 c -0.58296,-4.004675 -0.40059,-11.95386 0.3669,-15.992182 1.08311,-5.699041 3.42662,-11.611692 6.44254,-16.254491 1.62048,-2.494614 5.93595,-6.918069 8.29472,-8.502263 2.02402,-1.359375 4.96059,-2.822357 6.9884,-3.48158 4.71039,-1.531307 10.25639,-1.418881 14.82398,0.300505 11.20633,4.218422 18.86662,14.675512 21.50876,29.361686 0.69539,3.865305 0.75514,11.207178 0.12152,14.933505 -0.91475,5.37972 -2.40832,9.969363 -4.68934,14.41003 -4.09712,7.976248 -11.04358,13.996373 -18.7198,16.223438 -2.45619,0.712605 -8.07958,0.909912 -10.5,0.368415 z m 9.5,-3.413595 c 1.03125,-0.2576 2.82319,-0.921668 3.9821,-1.475703 7.59891,-3.632815 13.46574,-11.4561 16.0202,-21.362585 1.21758,-4.7219 1.37359,-6.113005 1.35979,-12.125 -0.0117,-5.112045 -0.0737,-5.911305 -0.67924,-8.76459 C 562.78657,33.478618 559.5782,26.969785 555.15786,22.419191 550.25413,17.37097 545.04795,14.953758 539,14.917156 c -3.62334,-0.02193 -5.47594,0.428096 -9.13528,2.219096 -6.52075,3.191473 -11.40684,8.99188 -14.45797,17.163462 -5.79712,15.525921 -2.64329,33.704684 7.66996,44.209901 5.9846,6.095988 13.1502,8.332905 20.67329,6.453673 z"
     id="path7808" /><path
     style="opacity:0.238372;fill:#ffffff;fill-opacity:1;stroke:none;stroke-width:0.6105;stroke-dasharray:none;stroke-opacity:1"
     d="m 615.77825,88.378928 c -5.47662,-1.23989 -10.14145,-3.964558 -14.42294,-8.424255 -8.84079,-9.20878 -12.69655,-24.932395 -9.72145,-39.643658 1.63887,-8.103897 4.86699,-14.677933 9.67918,-19.711569 3.61903,-3.785576 7.23801,-6.227748 11.25167,-7.592898 2.90008,-0.986394 4.70914,-1.279567 7.87414,-1.276072 7.44963,0.0082 15.64985,4.393671 20.83906,11.144637 6.19104,8.054332 9.60719,20.022347 8.73444,30.600007 -1.42637,17.28768 -10.37667,30.335828 -23.63735,34.459613 -2.54093,0.790175 -8.04877,1.021052 -10.59675,0.444195 z m 9.47175,-3.41564 c 3.99962,-0.999085 7.77443,-3.301048 11.29086,-6.885415 5.49982,-5.606085 8.89158,-13.366743 9.97524,-22.824255 0.36658,-3.19929 0.17734,-9.780753 -0.36566,-12.717088 -2.01635,-10.903634 -6.96653,-19.263695 -14.24614,-24.059446 -2.77502,-1.828157 -5.4436,-2.873558 -8.69966,-3.408037 -4.04177,-0.663451 -7.94222,0.01207 -12.07469,2.091219 -15.88683,7.993068 -22.1305,33.919529 -12.69396,52.710922 5.99961,11.94729 16.26757,17.72655 26.81401,15.0921 z"
     id="path7810" /><path
     style="opacity:0.238372;fill:#ffffff;fill-opacity:1;stroke:none;stroke-width:0.6105;stroke-dasharray:none;stroke-opacity:1"
     d="m 686,88.370983 c -2.67473,-0.546523 -5.14773,-1.602963 -7.5,-3.20392 -1.42375,-0.969005 -4,-3.402168 -4,-3.777838 0,-0.156565 0.71117,-0.474165 1.58039,-0.705775 l 1.58038,-0.421115 1.34299,1.241143 c 1.43684,1.32787 4.4402,3.018175 6.19219,3.484992 6.43695,1.715118 14.22187,-0.17984 19.03124,-4.632472 3.10428,-2.874013 4.50888,-5.94378 4.51754,-9.873123 0.009,-4.26632 -1.15959,-6.894092 -4.61687,-10.37825 -2.89692,-2.919445 -5.17475,-4.398072 -12.79041,-8.302762 C 683.60516,47.83737 680.49744,45.763308 676.85271,42.134888 674.58915,39.881455 673.91317,39.030928 673.16897,37.5 671.92377,34.938438 671.5,33.087359 671.5,30.209781 c 0,-2.899713 0.31254,-4.534414 1.27552,-6.671364 2.08243,-4.621144 5.7997,-7.895082 11.57919,-10.198226 7.07887,-2.820951 15.56078,-1.952122 21.03455,2.154638 1.76847,1.326812 4.01332,3.428749 3.84539,3.600585 -0.0772,0.07899 -0.87796,0.337078 -1.77948,0.573529 l -1.63913,0.429911 -1.47052,-1.316252 C 701.40813,16.153361 697.70162,14.893334 693,14.925691 c -3.51725,0.02421 -5.92216,0.598854 -9.125,2.1804 -4.07309,2.011273 -7.10018,5.162674 -8.42301,8.768909 -0.80069,2.182785 -0.80094,6.101909 -5.5e-4,8.418145 1.74815,5.058925 6.1356,8.756045 17.32755,14.601208 3.07781,1.607425 6.27101,3.31946 7.09601,3.804522 5.47235,3.21748 9.7689,7.900123 11.51627,12.551125 0.63848,1.699453 0.70501,2.179283 0.71054,5.125 0.005,2.894413 -0.0662,3.450623 -0.65515,5.08365 -2.37365,6.582 -8.2809,11.198578 -16.49862,12.893833 -2.31431,0.477425 -6.65807,0.486405 -8.94804,0.0185 z"
     id="path7812" /><path
     style="opacity:0.238372;fill:#ffffff;fill-opacity:1;stroke:none;stroke-width:0.6105;stroke-dasharray:none;stroke-opacity:1"
     d="M 754.5,51.875 V 15.5 H 745 735.5 V 13.875 12.25 h 20.875 20.875 V 13.875 15.5 H 767.625 758 V 51.875 88.25 h -1.75 -1.75 z"
     id="path7814" /><path
     style="opacity:1;fill:#ffffff;fill-opacity:1;stroke:none;stroke-width:0.431689;stroke-dasharray:none;stroke-opacity:1"
     d="M 202.40932,50.192393 V 12.173216 l 9.59013,0.07126 c 9.11937,0.06776 9.67692,0.09055 11.3579,0.46429 5.63271,1.252328 10.39769,3.76949 13.78267,7.280876 4.80737,4.986876 6.81148,11.588986 5.47673,18.041834 -1.52615,7.378143 -7.5843,13.614438 -15.94122,16.410004 -1.72334,0.576492 -4.58533,1.235755 -5.38487,1.24041 -0.26163,0.0016 -0.52271,0.07884 -0.58017,0.171811 -0.0575,0.09297 4.65598,7.312091 10.47432,16.042485 5.81834,8.730395 10.63832,15.972881 10.71107,16.094415 0.10285,0.171804 -0.33221,0.220612 -1.95528,0.219359 l -2.08756,-0.0016 -10.67626,-16.08508 -10.67626,-16.085068 h -5.27784 -5.27783 v 16.08668 16.086679 h -1.76777 -1.76776 z m 20.02269,1.974638 c 2.04974,-0.414962 4.95616,-1.36344 6.39611,-2.087296 3.96468,-1.993028 7.25744,-5.259561 9.05125,-8.979153 1.21747,-2.52452 1.52587,-3.947189 1.53282,-7.071068 0.005,-2.396051 -0.0408,-2.80501 -0.47888,-4.242641 -0.57692,-1.893334 -1.58853,-3.974109 -2.6548,-5.460624 -0.96763,-1.349 -3.35543,-3.668194 -4.90224,-4.761393 -1.54364,-1.090957 -4.44451,-2.460816 -6.42792,-3.035412 -2.95615,-0.856396 -4.36724,-0.970924 -11.97663,-0.972053 l -7.02687,-0.001 V 34.13803 52.719711 l 7.29204,-0.0837 c 6.58889,-0.07563 7.47555,-0.120853 9.19512,-0.468976 z"
     id="path7816" /><path
     style="opacity:1;fill:#ffffff;fill-opacity:1;stroke:none;stroke-width:0.431689;stroke-dasharray:none;stroke-opacity:1"
     d="m 263.92761,88.150963 c 0,-0.03333 2.18041,-6.456956 4.84536,-14.274718 2.66496,-7.81776 8.39663,-24.635096 12.73705,-37.371857 4.34043,-12.736761 7.98402,-23.418803 8.09687,-23.737872 l 0.20519,-0.580124 1.84729,0.04979 1.8473,0.04979 0.57227,1.679379 c 5.41097,15.879108 9.76247,28.631583 13.6024,39.863145 3.95808,11.577178 7.31904,21.427593 11.05291,32.394329 l 0.67711,1.988738 h -1.82134 -1.82134 l -2.38613,-7.026874 -2.38612,-7.026873 -19.33597,-0.04477 -19.33596,-0.04477 -2.38649,7.069687 -2.38648,7.069688 -1.81196,0.002 c -0.99658,0.0011 -1.81196,-0.02532 -1.81196,-0.05865 z m 43.90626,-23.406498 c -1.12395,-3.281418 -3.6329,-10.61986 -5.57545,-16.30765 -1.94256,-5.687791 -5.04613,-14.71666 -6.89682,-20.064155 -1.85069,-5.347495 -3.40531,-9.86193 -3.4547,-10.032078 -0.0494,-0.170147 -0.1402,-0.308183 -0.20178,-0.306746 -0.0616,0.0014 -1.45099,3.919251 -3.08759,8.706252 -1.63659,4.787002 -5.67373,16.592303 -8.97141,26.234005 -3.29769,9.641699 -5.9958,17.576763 -5.9958,17.633475 0,0.05671 8.1511,0.10311 18.11354,0.10311 h 18.11353 z"
     id="path7818" /><path
     style="opacity:1;fill:#ffffff;fill-opacity:1;stroke:none;stroke-width:0.431689;stroke-dasharray:none;stroke-opacity:1"
     d="m 343.6539,50.204582 v -38.00699 h 1.76776 1.76777 v 38.00699 38.006989 h -1.76777 -1.76776 z"
     id="path7820" /><path
     style="opacity:1;fill:#ffffff;fill-opacity:1;stroke:none;stroke-width:0.431689;stroke-dasharray:none;stroke-opacity:1"
     d="m 371.76139,52.088236 c 0,-19.867834 -0.052,-36.972909 -0.11551,-38.01128 l -0.11552,-1.887946 3.06646,0.04848 3.06647,0.04849 13.44509,26.696287 c 16.66628,33.092213 22.73084,45.048038 23.10217,45.544175 0.26784,0.357856 0.29651,-0.236985 0.41104,-8.527498 0.0677,-4.901703 0.0972,-21.262259 0.0656,-36.356789 l -0.0575,-27.444602 1.72357,1.9e-5 1.72357,2e-5 v 38.00699 38.006989 l -2.961,-0.0042 -2.96101,-0.0042 L 401.0355,66.154502 C 387.45839,39.232073 377.70232,19.982664 376.37674,17.500893 l -0.99143,-1.856155 -0.0446,36.283416 -0.0446,36.283417 h -1.76735 -1.76734 z"
     id="path7822" /><path
     style="opacity:1;fill:#ffffff;fill-opacity:1;stroke:none;stroke-width:0.431689;stroke-dasharray:none;stroke-opacity:1"
     d="M 442.64885,50.195973 V 12.180374 l 11.09273,0.05805 11.09274,0.05805 1.70078,0.464924 c 3.17489,0.867884 5.83005,2.455566 8.11064,4.849846 2.04824,2.150345 3.12486,3.939323 4.05739,6.742024 2.28115,6.855914 0.0898,14.511589 -5.54104,19.357884 -0.69119,0.594885 -1.2397,1.114619 -1.21891,1.154963 0.0208,0.04034 0.83128,0.339574 1.80111,0.664954 2.16515,0.726416 3.37803,1.330093 5.42142,2.69835 1.80185,1.20652 3.66595,2.973267 4.99977,4.738658 1.29702,1.716672 3.1107,5.446538 3.64186,7.48955 2.97916,11.458725 -3.34662,23.15217 -14.48774,26.781134 -2.83637,0.923884 -3.68897,0.970636 -17.72186,0.971764 l -12.94889,10e-4 z m 28.45334,34.311396 c 3.13846,-0.784657 6.44139,-2.735603 8.79406,-5.194397 2.72577,-2.84872 4.38683,-6.183322 5.00634,-10.050312 0.3201,-1.99806 0.13911,-6.035631 -0.35111,-7.832758 C 482.79643,54.99601 478.23423,50.337019 471.711,48.317008 l -1.57338,-0.48722 -12.06501,-0.0601 -12.06501,-0.0601 v 18.683945 18.683946 l 11.79985,-0.09818 c 11.24273,-0.09355 11.87042,-0.115827 13.29474,-0.47193 z m -6.03945,-40.409791 c 2.0996,-0.421243 4.67664,-1.768807 6.32311,-3.306421 4.4759,-4.180002 5.96668,-10.54701 3.79067,-16.189613 -1.70426,-4.419274 -5.94378,-8.052742 -10.33047,-8.853677 -0.6631,-0.121071 -4.32076,-0.191518 -9.94369,-0.191518 H 446.0076 V 29.96365 44.370951 h 8.84629 c 7.27615,0 9.08813,-0.04852 10.20885,-0.273373 z"
     id="path7824" /><path
     style="opacity:1;fill:#ffffff;fill-opacity:1;stroke:none;stroke-width:0.431689;stroke-dasharray:none;stroke-opacity:1"
     d="m 536.43807,88.735461 c -3.00226,-0.341472 -5.57799,-1.128857 -8.40967,-2.570793 -9.91433,-5.048516 -16.48596,-15.470522 -18.49473,-29.33096 -0.43035,-2.96938 -0.43285,-10.091125 -0.005,-13.169864 1.0381,-7.463452 3.63934,-14.393396 7.39721,-19.706818 1.28599,-1.81832 4.08893,-4.805145 5.89082,-6.277292 8.74023,-7.140781 19.14744,-8.0072283 28.48782,-2.371742 2.95184,1.780986 5.62388,4.061556 7.76142,6.624337 4.60623,5.522579 8.00479,13.575572 9.18588,21.766243 0.38719,2.685082 0.51996,7.603409 0.28155,10.429353 -0.69824,8.276273 -3.45792,16.070182 -7.93723,22.416384 -1.52056,2.154305 -5.13051,5.764377 -7.28546,7.285708 -5.31928,3.755252 -11.41198,5.52657 -16.87299,4.905444 z m 6.10315,-3.531853 c 4.48645,-0.91428 8.14391,-2.912303 11.80622,-6.44959 4.34027,-4.1921 7.30468,-9.294539 9.12427,-15.704994 1.2898,-4.544001 1.68339,-7.526471 1.68339,-12.756054 0,-5.748754 -0.54541,-9.296658 -2.20306,-14.330907 -2.53897,-7.71084 -6.80628,-13.689525 -12.41961,-17.400388 -8.9987,-5.948871 -19.33968,-4.592198 -27.54884,3.614241 -8.02038,8.017715 -11.9506,22.077011 -9.87657,35.330784 1.63075,10.421015 6.93977,19.652527 14.04286,24.418181 4.6929,3.148591 10.23579,4.329362 15.39134,3.278727 z"
     id="path7826" /><path
     style="opacity:1;fill:#ffffff;fill-opacity:1;stroke:none;stroke-width:0.431689;stroke-dasharray:none;stroke-opacity:1"
     d="m 618.01133,88.750936 c -7.68822,-0.808115 -15.19266,-5.68855 -20.21551,-13.146952 -1.45673,-2.16309 -3.56299,-6.406596 -4.44688,-8.95917 -0.93202,-2.691589 -1.78363,-6.136502 -2.23504,-9.041141 -0.33128,-2.131676 -0.396,-3.287299 -0.40448,-7.222315 -0.0109,-5.048311 0.112,-6.368442 0.97898,-10.518213 2.21948,-10.623376 7.44983,-18.918238 15.186,-24.083593 2.81919,-1.882345 6.32688,-3.299966 9.54594,-3.857951 2.50648,-0.434469 6.74273,-0.280561 9.05113,0.328838 5.76471,1.521833 11.47542,5.210279 15.1926,9.812642 10.45059,12.939187 12.4741,32.749712 4.94193,48.382432 -2.5722,5.338494 -5.50381,9.168216 -9.40684,12.288664 -5.61038,4.485454 -12.15587,6.650785 -18.18783,6.016759 z m 5.58873,-3.464657 c 4.61773,-0.805265 8.60396,-2.978979 12.46535,-6.797426 3.14328,-3.108314 5.3196,-6.29298 7.03342,-10.292185 2.46365,-5.748937 3.55032,-11.200513 3.55032,-17.811115 0,-5.582999 -0.62984,-9.661424 -2.23925,-14.499884 -1.89383,-5.693502 -4.50314,-10.095035 -8.1854,-13.807619 -6.34186,-6.394066 -14.24823,-8.664222 -21.74871,-6.244705 -3.79307,1.223577 -6.72785,3.075484 -9.91201,6.254683 -3.99991,3.993693 -6.76873,8.882169 -8.73123,15.415403 -1.22715,4.085208 -1.76056,8.075182 -1.74526,13.054704 0.0133,4.338871 0.36613,7.2248 1.36679,11.180604 3.06883,12.131701 11.39849,21.611865 20.52432,23.359158 0.77781,0.148926 1.57331,0.304577 1.76776,0.345894 0.87684,0.186298 4.43069,0.09067 5.8539,-0.157512 z"
     id="path7828" /><path
     style="opacity:1;fill:#ffffff;fill-opacity:1;stroke:none;stroke-width:0.431689;stroke-dasharray:none;stroke-opacity:1"
     d="m 688.54523,88.794333 c -2.59866,-0.204419 -6.06129,-1.225071 -8.18466,-2.412528 -2.01353,-1.126027 -4.908,-3.485382 -5.78241,-4.713379 l -0.34634,-0.486389 1.72082,-0.47746 1.72082,-0.477461 0.88389,0.830928 c 2.04331,1.920889 4.50816,3.309907 7.07106,3.984754 2.01662,0.531001 5.80022,0.655374 8.04334,0.264399 2.16015,-0.376515 5.00411,-1.330884 6.77038,-2.271994 3.96315,-2.111654 7.13924,-5.890265 7.98189,-9.496098 0.39205,-1.67763 0.35873,-4.914487 -0.0678,-6.582025 -0.82624,-3.23057 -3.02207,-6.218499 -6.61454,-9.0006 -2.32607,-1.801363 -4.16227,-2.87863 -10.62215,-6.231815 -7.49123,-3.888534 -10.52565,-5.875212 -14.01546,-9.176102 -2.73609,-2.587979 -4.32994,-5.087349 -5.20716,-8.165496 -0.34294,-1.203368 -0.40348,-1.835903 -0.40607,-4.24264 -0.004,-3.362038 0.22235,-4.429719 1.49656,-7.071068 2.16686,-4.491746 5.73936,-7.561054 11.43335,-9.82295 6.49902,-2.581686 14.54382,-2.010374 19.78332,1.404936 2.30197,1.500517 5.32079,4.234218 4.99412,4.522451 -0.0322,0.0284 -0.80256,0.264009 -1.71194,0.523581 l -1.65342,0.47195 -0.90984,-0.851819 c -2.73952,-2.564827 -5.6879,-3.862438 -9.77621,-4.302613 -6.04138,-0.650454 -12.32981,1.609478 -16.46558,5.917388 -2.99859,3.123405 -4.21515,6.585329 -3.75173,10.676194 0.56968,5.02891 3.58789,8.824352 10.43374,13.120561 2.17312,1.363772 2.88743,1.757677 9.45755,5.215275 7.04295,3.706429 8.86301,4.949995 11.94217,8.159528 2.47265,2.577351 4.07035,5.156454 4.96714,8.018257 0.3647,1.163822 0.41225,1.659831 0.40599,4.235027 -0.008,3.311529 -0.19716,4.269705 -1.31508,6.66298 -0.93815,2.008415 -1.80409,3.262867 -3.41316,4.944517 -3.46056,3.616653 -9.08981,6.196439 -14.7713,6.769427 -1.78216,0.179734 -2.4481,0.189547 -4.09133,0.06028 z"
     id="path7830" /><path
     style="opacity:1;fill:#ffffff;fill-opacity:1;stroke:none;stroke-width:0.431689;stroke-dasharray:none;stroke-opacity:1"
     d="M 754.48294,51.885496 V 15.559421 l -9.50175,-0.04573 -9.50175,-0.04573 -0.0508,-1.635185 -0.0508,-1.635184 h 20.95467 20.95467 v 1.679379 1.679378 h -9.63433 -9.63433 V 51.88396 88.211571 h -1.76777 -1.76776 z"
     id="path7832" /></g></svg>
